<svg width="1440" height="218" viewBox="0 0 1440 218" fill="none" xmlns="http://www.w3.org/2000/svg">
<path fill-rule="evenodd" clip-rule="evenodd" d="M0 60.0472L14.4 65.2808C28.8 70.5144 56.4 80.9817 85.2 86.2153C112.8 91.4489 141.6 91.4489 169.2 112.383C198 133.318 225.6 175.187 254.4 159.486C282 143.785 310.8 70.5144 338.4 33.8791C367.2 -2.7563 394.8 -2.7563 423.6 2.47732C451.2 7.71095 480 18.1782 508.8 33.8791C536.4 49.5799 565.2 70.5144 592.8 70.5144C621.6 70.5144 649.2 49.5799 678 54.8136C705.6 60.0472 734.4 91.4489 762 86.2153C790.8 80.9817 818.4 39.1127 847.2 28.6454C874.8 18.1782 903.6 39.1127 931.2 39.1127C960 39.1127 988.8 18.1782 1016.4 39.1127C1045.2 60.0472 1072.8 122.851 1101.6 138.552C1129.2 154.252 1158 122.851 1185.6 101.916C1214.4 80.9817 1242 70.5144 1270.8 80.9817C1298.4 91.4489 1327.2 122.851 1354.8 133.318C1383.6 143.785 1411.2 133.318 1425.6 128.084L1440 122.851V217.056H1425.6C1411.2 217.056 1383.6 217.056 1354.8 217.056C1327.2 217.056 1298.4 217.056 1270.8 217.056C1242 217.056 1214.4 217.056 1185.6 217.056C1158 217.056 1129.2 217.056 1101.6 217.056C1072.8 217.056 1045.2 217.056 1016.4 217.056C988.8 217.056 960 217.056 931.2 217.056C903.6 217.056 874.8 217.056 847.2 217.056C818.4 217.056 790.8 217.056 762 217.056C734.4 217.056 705.6 217.056 678 217.056C649.2 217.056 621.6 217.056 592.8 217.056C565.2 217.056 536.4 217.056 508.8 217.056C480 217.056 451.2 217.056 423.6 217.056C394.8 217.056 367.2 217.056 338.4 217.056C310.8 217.056 282 217.056 254.4 217.056C225.6 217.056 198 217.056 169.2 217.056C141.6 217.056 112.8 217.056 85.2 217.056C56.4 217.056 28.8 217.056 14.4 217.056H0V60.0472Z" fill="#202020"/>
</svg>
