<svg width="1440" height="283" viewBox="0 0 1440 283" fill="none" xmlns="http://www.w3.org/2000/svg">
<path fill-rule="evenodd" clip-rule="evenodd" d="M0 252.3H34.8C68.4 252.3 136.8 252.3 205.2 228.271C274.8 204.242 343.2 156.185 411.6 168.2C480 180.214 548.4 252.3 616.8 264.314C685.2 276.328 754.8 228.271 823.2 228.271C891.6 228.271 960 276.328 1028.4 282.335C1096.8 288.342 1165.2 252.3 1234.8 228.271C1303.2 204.242 1371.6 192.228 1405.2 186.221L1440 180.214V0H1405.2C1371.6 0 1303.2 0 1234.8 0C1165.2 0 1096.8 0 1028.4 0C960 0 891.6 0 823.2 0C754.8 0 685.2 0 616.8 0C548.4 0 480 0 411.6 0C343.2 0 274.8 0 205.2 0C136.8 0 68.4 0 34.8 0H0V252.3Z" fill="#202020"/>
</svg>
